<svg xmlns="http://www.w3.org/2000/svg" viewBox="0 0 1200 630" role="img" aria-label="Adipura Archery Community">
  <defs>
    <linearGradient id="bg" x1="0" y1="0" x2="1" y2="1">
      <stop offset="0" stop-color="#123A5E"/>
      <stop offset="1" stop-color="#20242B"/>
    </linearGradient>
  </defs>
  <rect width="1200" height="630" fill="url(#bg)"/>
  <circle cx="1050" cy="120" r="220" fill="#F5A623" opacity="0.18"/>
  <circle cx="120" cy="560" r="200" fill="#D6322E" opacity="0.14"/>

  <!-- emblem -->
  <g transform="translate(120,190) scale(2.6)">
    <circle cx="50" cy="50" r="47" fill="#F6F3EE"/>
    <circle cx="50" cy="50" r="42" fill="#7ec9ec"/>
    <polygon points="10,74 36,38 54,60 42,74" fill="#4aa74b"/>
    <polygon points="44,74 70,42 94,74" fill="#4aa74b"/>
    <circle cx="34" cy="48" r="8" fill="#20242B"/>
    <g stroke="#20242B" stroke-width="3" stroke-linecap="round" fill="none">
      <line x1="30" y1="48" x2="86" y2="48"/>
      <polyline points="78,42 86,48 78,54"/>
    </g>
    <path d="M50 8 A42 42 0 0 1 88 62" fill="none" stroke="#D6322E" stroke-width="7" stroke-linecap="round"/>
  </g>

  <!-- teks -->
  <text x="470" y="250" font-family="Poppins, Arial, sans-serif" font-size="72" font-weight="800" fill="#ffffff">Adipura Archery</text>
  <text x="472" y="315" font-family="Poppins, Arial, sans-serif" font-size="40" font-weight="700" fill="#FFB84D" letter-spacing="6">COMMUNITY · BANDUNG</text>
  <text x="472" y="390" font-family="Inter, Arial, sans-serif" font-size="30" fill="#ffffff" opacity="0.85">Precision, Focus, and Excellence in Archery</text>
  <text x="472" y="452" font-family="Inter, Arial, sans-serif" font-size="26" fill="#ffffff" opacity="0.7">Klub &amp; komunitas panahan · Latihan semua usia</text>

  <rect x="472" y="500" width="330" height="66" rx="33" fill="#F5A623"/>
  <text x="637" y="542" text-anchor="middle" font-family="Poppins, Arial, sans-serif" font-size="28" font-weight="700" fill="#20242B">Hubungi via WhatsApp</text>
</svg>
